# xmcd CD database file
#
# Track frame offsets:
#	188
#	25013
#	42863
#	63638
#	77288
#	105188
#	126413
#	139763
#	157913
#	179213
#
# Disc length: 2621 seconds
#
# Revision: 0
# Processed by: cddbd v1.5.2PL0 Copyright (c) Steve Scherf et al.
# Submitted via: CDex 1.51
#
DISCID=7b0a3b0a
DTITLE=Varios artistas - Los 40 grandes exitos del ritmo mas caliente vol. 4
DYEAR=1993
DGENRE=Salsa
TTITLE0=Bamboleo - Celis Cruz y Fania all stars
TTITLE1=La fiesta de pilito - El gran Combo de Puerto Rico
TTITLE2=El casco - Roberto Blades
TTITLE3=A la yumbae - Tommy Olivencia
TTITLE4=Coro Miyare - Fania all stars
TTITLE5=Majestad antillana - Jose Alberto y Tipica 73
TTITLE6=Puro teatro - La Lupe
TTITLE7=Prestame los guantes - Johnny Pacheco y Hector Casanova
TTITLE8=Irresistible - Ray Barreto
TTITLE9=Ban-con-tin - Tito Puente
EXTD=YEAR: 1993
EXTT0=
EXTT1=
EXTT2=
EXTT3=
EXTT4=
EXTT5=
EXTT6=
EXTT7=
EXTT8=
EXTT9=
PLAYORDER=
